# xmcd
#
# Track frame offsets: 
#        150
#        19490
#        48142
#        64345
#        84587
#        108347
#        133725
#        149792
#
# Disc length: 2229 seconds
#
# Revision: 2
# Processed by: cddbd v1.5.2PL0 Copyright (c) Steve Scherf et al.
# Submitted via: ExactAudioCopyFreeDBPlugin 1.0
#
DISCID=7608b308
DTITLE=Teddy Pendegrass - This One's For You
DYEAR=1982
DGENRE=R&B
TTITLE0=I Can't Win For Losing
TTITLE1=This One's For You
TTITLE2=Loving You Was Good
TTITLE3=This Gift Of Life
TTITLE4=Now Tell Me That You Love Me
TTITLE5=It's Up To You (What You Do With Your Life)
TTITLE6=Don't Leave Me Out Along The Road
TTITLE7=Only To You
EXTD=YEAR: 1982
EXTT0=
EXTT1=
EXTT2=
EXTT3=
EXTT4=
EXTT5=
EXTT6=
EXTT7=
PLAYORDER=
